<?xml version="1.0" standalone="no"?>
<!DOCTYPE svg PUBLIC "-//W3C//DTD SVG 20010904//EN"
 "http://www.w3.org/TR/2001/REC-SVG-20010904/DTD/svg10.dtd">
<svg version="1.0" xmlns="http://www.w3.org/2000/svg"
 width="512.000000pt" height="512.000000pt" viewBox="0 0 512.000000 512.000000"
 preserveAspectRatio="xMidYMid meet">

<g transform="translate(0.000000,512.000000) scale(0.100000,-0.100000)"
fill="#000000" stroke="none">
<path d="M0 2560 l0 -2560 2560 0 2560 0 0 2560 0 2560 -2560 0 -2560 0 0
-2560z m1038 2215 c38 -16 241 -209 293 -279 58 -78 30 -199 -54 -240 -40 -18
-103 -21 -144 -5 -15 5 -86 67 -156 137 -170 167 -194 218 -144 312 16 30 37
51 67 67 51 27 86 29 138 8z m3182 -8 c30 -16 51 -37 67 -67 50 -94 26 -145
-144 -312 -70 -70 -141 -132 -156 -137 -73 -28 -161 -3 -203 58 -29 44 -34
132 -8 171 9 14 71 81 138 149 161 164 213 187 306 138z m-1390 -152 c200 -38
413 -128 573 -242 45 -32 127 -103 182 -158 195 -194 324 -432 387 -710 28
-128 36 -415 15 -551 -50 -310 -168 -546 -406 -808 -135 -149 -193 -289 -211
-505 -11 -123 -24 -158 -73 -195 -28 -21 -32 -21 -737 -21 -705 0 -709 0 -737
21 -49 37 -62 72 -73 195 -20 237 -85 382 -253 568 -173 191 -289 413 -349
670 -29 128 -36 424 -13 562 35 212 132 441 260 610 83 111 251 272 356 341
210 139 374 197 684 242 60 9 312 -4 395 -19z m-2101 -1433 c47 -25 71 -74 71
-142 0 -68 -24 -117 -71 -142 -30 -16 -60 -18 -249 -18 -242 0 -267 6 -302 71
-25 47 -24 141 2 184 37 59 60 65 300 65 190 0 219 -2 249 -18z m4160 0 c47
-25 71 -74 71 -142 0 -68 -24 -117 -71 -142 -30 -16 -60 -18 -249 -18 -242 0
-267 6 -302 71 -25 47 -24 141 2 184 37 59 60 65 300 65 190 0 219 -2 249 -18z
m-3603 -1363 c50 -30 74 -77 74 -141 0 -69 -16 -92 -171 -245 -149 -147 -199
-168 -289 -120 -30 16 -51 37 -67 67 -49 91 -28 139 130 299 67 68 136 132
152 142 42 26 127 26 171 -2z m2730 -8 c21 -16 89 -80 151 -142 147 -149 168
-199 120 -289 -16 -30 -37 -51 -67 -67 -90 -48 -140 -27 -289 120 -155 153
-171 176 -171 245 0 101 60 162 161 162 46 0 63 -5 95 -29z m-727 -549 c19
-10 43 -34 53 -53 24 -45 24 -133 0 -178 -21 -39 -73 -71 -114 -71 -27 0 -28
-2 -28 -47 -1 -251 -222 -517 -481 -578 -82 -19 -236 -19 -318 0 -257 61 -481
328 -481 574 0 49 -1 51 -28 51 -41 0 -93 32 -114 71 -25 47 -24 141 2 184 41
67 11 65 780 65 655 0 697 -1 729 -18z"/>
<path d="M2473 3810 c-35 -21 -63 -66 -63 -103 0 -33 -19 -52 -67 -66 -46 -13
-126 -69 -166 -117 -15 -17 -39 -55 -54 -85 -25 -49 -28 -64 -28 -159 0 -93 3
-112 27 -162 58 -124 178 -211 314 -229 38 -4 110 -8 160 -9 108 0 124 -11
124 -82 0 -72 -9 -75 -200 -80 -184 -5 -215 -13 -250 -71 -27 -43 -27 -131 0
-174 22 -36 50 -54 100 -62 30 -6 35 -11 41 -41 13 -80 62 -120 145 -120 82 0
154 66 154 141 0 23 7 29 53 44 28 9 66 25 82 35 50 31 122 112 152 170 25 50
28 65 28 160 0 93 -3 112 -27 162 -58 124 -178 211 -314 229 -38 4 -110 8
-160 9 -108 0 -124 11 -124 82 0 72 9 75 200 80 142 3 170 6 198 23 49 29 72
73 72 136 0 86 -39 135 -120 148 -30 6 -35 11 -41 41 -8 50 -26 78 -62 100
-43 27 -131 27 -174 0z"/>
</g>
</svg>
